<?xml version="1.0" encoding="iso-8859-1"?>
<!-- Generator: Adobe Illustrator 16.0.0, SVG Export Plug-In . SVG Version: 6.00 Build 0)  -->
<!DOCTYPE svg PUBLIC "-//W3C//DTD SVG 1.1//EN" "http://www.w3.org/Graphics/SVG/1.1/DTD/svg11.dtd">
<svg version="1.1" id="Capa_1" xmlns="http://www.w3.org/2000/svg" xmlns:xlink="http://www.w3.org/1999/xlink" x="0px" y="0px"
	 width="488.919px" height="488.919px" viewBox="0 0 488.919 488.919" style="enable-background:new 0 0 488.919 488.919;"
	 xml:space="preserve">
<g>
	<g>
		<path d="M173.478,365.788c-6.318,1.26-24.677,15.299-28.83,14.633c-12.698-12.642-24.349-26.343-34.637-41.016
			c-6.297-8.981-12.053-18.33-17.258-27.975l0.057-0.029c-6.506-12.039-12.141-24.552-16.838-37.42
			c-6.145-16.835-10.712-34.23-13.811-51.878c1.831-3.787,23.852-10.806,28.5-15.265c27.078-25.976,20.028-99.397-32.943-91.678
			c-68.131,9.899-63.735,90.647-47.94,140.407c5.923,18.657,15.994,46.073,29.717,74.412l3.718,7.289
			c15.386,27.471,32.103,51.421,44.012,66.956c31.766,41.433,95.464,91.251,142.575,41.049
			C266.26,405.284,210.273,358.451,173.478,365.788z"/>
		<path d="M233.564,264.971h-38.536l6.921-5.768c0.08-0.066,0.157-0.134,0.234-0.202c22.622-20.226,37.689-38.453,37.689-61.665
			c0-28.142-20.187-46.324-51.429-46.324c-15.541,0-30.751,4.227-42.828,11.904c-3.583,2.278-5.047,6.778-3.489,10.728l4.699,11.91
			c0.963,2.44,2.958,4.329,5.445,5.156c2.49,0.827,5.218,0.51,7.45-0.869c7.507-4.635,14.954-6.984,22.133-6.984
			c17.182,0,19.783,10.752,19.796,17.198c-0.406,14.739-14.614,29.975-44.34,56.56l-15.89,14.378
			c-1.857,1.68-2.916,4.066-2.916,6.569v11.031c0,4.895,3.967,8.859,8.859,8.859h86.202c4.894,0,8.859-3.966,8.859-8.859V273.83
			C242.423,268.938,238.458,264.971,233.564,264.971z"/>
		<path d="M350.267,234.355h-7.726v-72.146c0-4.892-3.966-8.859-8.859-8.859h-30.354c-3.063,0-5.908,1.583-7.524,4.186
			l-49.681,79.972c-0.872,1.404-1.333,3.023-1.333,4.675v13.458c0,4.892,3.966,8.858,8.859,8.858h52.372v24.095
			c0,4.895,3.968,8.859,8.859,8.859h18.804c4.894,0,8.859-3.966,8.859-8.859v-24.095h7.726c4.893,0,8.859-3.967,8.859-8.858v-12.427
			C359.126,238.322,355.159,234.355,350.267,234.355z M306.02,234.355h-23.074l23.09-40.789L306.02,234.355z"/>
		<path d="M482.78,152.624l-53.479-29.192c-12.932-22.041-30.056-41.65-50.832-57.816c-43.051-33.498-96.57-48.224-150.698-41.471
			c-45.999,5.74-89.068,27.2-121.273,60.425c-8.143,8.4-7.933,21.81,0.467,29.953c8.399,8.143,21.81,7.933,29.953-0.467
			c25.883-26.703,59.114-43.257,96.1-47.872c63.006-7.866,122.197,21.792,155.095,71.451l-19.874,60.241
			c-1.434,4.343-0.224,9.122,3.101,12.26c3.325,3.139,8.166,4.07,12.418,2.391l29.082-11.489c0.304,1.893,0.587,3.793,0.827,5.709
			c5.354,42.899-6.319,85.316-32.868,119.438c-26.549,34.119-64.796,55.858-107.694,61.212
			c-11.609,1.449-19.846,12.034-18.396,23.644c1.338,10.719,10.463,18.562,20.993,18.561c0.874,0,1.76-0.054,2.649-0.165
			c54.128-6.755,102.387-34.185,135.885-77.235s48.226-96.57,41.471-150.698c-0.688-5.508-1.6-10.951-2.71-16.328l28.47-11.247
			c4.252-1.68,7.148-5.669,7.432-10.233C489.177,159.13,486.794,154.814,482.78,152.624z"/>
	</g>
</g>
<g>
</g>
<g>
</g>
<g>
</g>
<g>
</g>
<g>
</g>
<g>
</g>
<g>
</g>
<g>
</g>
<g>
</g>
<g>
</g>
<g>
</g>
<g>
</g>
<g>
</g>
<g>
</g>
<g>
</g>
</svg>
