<svg id="Layer_1" enable-background="new 0 0 511.981 511.981" height="512" viewBox="0 0 511.981 511.981" width="512" xmlns="http://www.w3.org/2000/svg"><g><circle cx="304.016" cy="207.774" fill="#d7f0f0" r="192.774"/><path d="m496.79 207.774c0-106.466-86.308-192.774-192.774-192.774v385.548c106.466 0 192.774-86.308 192.774-192.774z" fill="#b0e9e7"/><path d="m304.016 0c-114.567 0-207.774 93.207-207.774 207.774s93.207 207.774 207.774 207.774 207.774-93.207 207.774-207.774-93.207-207.774-207.774-207.774zm0 385.548c-98.025 0-177.774-79.749-177.774-177.774 0-92.972 71.743-169.493 162.774-177.135v39.209h30v-39.209c86.084 7.227 154.908 76.051 162.135 162.135h-39.209v30h39.209c-7.642 91.031-84.162 162.774-177.135 162.774z" fill="#005f90"/><path d="m511.79 207.774c0-114.567-93.207-207.774-207.774-207.774v69.848h15v-39.209c86.084 7.227 154.908 76.051 162.135 162.135h-39.209v30h39.209c-7.642 91.031-84.162 162.774-177.135 162.774v30c114.567 0 207.774-93.207 207.774-207.774z" fill="#00385b"/><path d="m417.58 387.706-47.031-47.032c-8.488-8.488-19.773-13.163-31.776-13.163-12.004 0-23.289 4.674-31.777 13.163l-8.62 8.621c-7.188 7.188-16.03 10.681-27.034 10.681-.001 0-.002 0-.002 0-38.626-.002-93.429-44.148-112.768-90.838-6.819-16.462-11.606-39.427 4.306-55.34l8.691-8.691c8.494-8.494 13.168-19.787 13.163-31.799-.006-12.013-4.692-23.302-13.195-31.788l-47.081-46.982c-8.484-8.466-19.758-13.129-31.744-13.129-12.003 0-23.289 4.674-31.777 13.162l-23.537 23.538c-41.467 41.466-48.532 102.368-19.896 171.487 22.458 54.204 65.633 109.756 118.456 152.412 55.881 45.126 114.713 69.974 165.677 69.974h.028c36.631-.006 67.72-12.524 92.402-37.207l23.515-23.516c17.522-17.522 17.522-46.031 0-63.553z" fill="#0078a8"/><g><g><path d="m290.757 209.63c6.127-8.115 9.106-16.289 9.106-24.989 0-9.207-2.559-16.787-7.604-22.528-6.13-6.981-14.789-10.521-25.734-10.521-9.012 0-16.865 3.023-23.388 9.031-6.38 6.035-9.871 13.533-10.375 22.284l-.252 4.379 21.836 4.16.53-5.453c.781-8.036 5.136-12.833 11.649-12.833 5.136 0 7.191 1.77 8.259 3.062 1.805 2.229 2.645 4.905 2.645 8.42 0 4.75-1.073 8.376-7.183 16.152l-39.662 50.803v12.359h71.158v-21.566h-36.31z" fill="#dd0d0d"/></g><g><path d="m372.869 220.847v-68.097h-21.487l-44.899 78.271v11.392h43.952v21.542h22.434v-21.542h12.579v-21.566zm-36.369 0 13.935-24.865v24.865z" fill="#dd0d0d"/></g></g><path d="m370.549 340.674c-8.488-8.488-19.773-13.163-31.776-13.163-12.004 0-23.289 4.674-31.777 13.163l-8.62 8.621c-7.188 7.188-16.03 10.681-27.034 10.681-.001 0-.002 0-.002 0-23.994-.001-54.227-17.038-78.327-41.135l-91.841 91.841c10.998 11.007 22.633 21.511 34.787 31.326 55.881 45.126 114.713 69.974 165.677 69.974h.028c36.631-.006 67.72-12.524 92.402-37.207l23.515-23.516c17.522-17.521 17.522-46.031 0-63.553z" fill="#005f90"/></g></svg>